<svg width="20" height="21" viewBox="0 0 20 21" fill="none" xmlns="http://www.w3.org/2000/svg">
<path d="M9.01412 1.80379C9.20268 0.69375 10.7973 0.693753 10.9859 1.80379L11.2709 3.48163C11.4104 4.30296 12.4342 4.60357 12.9956 3.98805L14.1425 2.73065C14.9012 1.89877 16.2427 2.7609 15.8012 3.79667L15.1339 5.36224C14.8072 6.12861 15.5059 6.935 16.311 6.72072L17.9556 6.28297C19.0437 5.99336 19.7061 7.4439 18.7747 8.07654L17.3669 9.0328C16.6778 9.50089 16.8296 10.557 17.6227 10.812L19.2429 11.3329C20.3148 11.6775 20.0879 13.2559 18.9623 13.2846L17.261 13.3279C16.4282 13.3491 15.9849 14.3197 16.5143 14.963L17.5956 16.2772C18.3111 17.1466 17.2668 18.3517 16.3044 17.7673L14.8498 16.884C14.1377 16.4515 13.24 17.0284 13.3376 17.8558L13.5368 19.5459C13.6686 20.6641 12.1386 21.1134 11.6449 20.1014L10.8988 18.5719C10.5335 17.8231 9.4665 17.8231 9.10124 18.5719L8.35507 20.1014C7.86141 21.1134 6.33138 20.6641 6.46319 19.5459L6.66242 17.8558C6.75995 17.0284 5.86233 16.4515 5.15025 16.884L3.69558 17.7673C2.73319 18.3517 1.68893 17.1466 2.40436 16.2772L3.48574 14.963C4.0151 14.3197 3.57184 13.3491 2.73903 13.3279L1.0377 13.2846C-0.0878749 13.2559 -0.314813 11.6775 0.757095 11.3329L2.37729 10.812C3.1704 10.557 3.32225 9.5009 2.63311 9.0328L1.22529 8.07655C0.293893 7.4439 0.956326 5.99337 2.04439 6.28297L3.689 6.72072C4.49406 6.935 5.1928 6.12861 4.86613 5.36224L4.19878 3.79666C3.75728 2.76089 5.09877 1.89877 5.85753 2.73065L7.0044 3.98805C7.56581 4.60357 8.5896 4.30296 8.72911 3.48163L9.01412 1.80379Z" fill="#C9F2A8"/>
</svg>
